<?xml version="1.0" encoding="UTF-8"?>
<svg id="Layer_2" data-name="Layer 2" xmlns="http://www.w3.org/2000/svg" viewBox="0 0 671.28 467.57">
  <defs>
    <style>
      .cls-1 {
        fill: #ca5c2b;
      }

      .cls-2 {
        fill: #a24838;
      }

      .cls-3 {
        fill: #a24938;
      }

      .cls-4 {
        fill: #a24a39;
      }

      .cls-5 {
        fill: #fff;
      }

      .cls-6 {
        fill: #fcf7cd;
      }

      .cls-7 {
        fill: #d1cb54;
      }

      .cls-8 {
        fill: #d1cb53;
      }
    </style>
  </defs>
  <g id="Layer_1-2" data-name="Layer 1">
    <path class="cls-5" d="M522.27,204.08c-2.48-14.04-10.41-37.27-28.9-32.87-7.01,1.67-11.29,7.78-16.07,5.65-4.21-1.88-4.03-24.28-5.82-28.23-8.86-9.69-50.94-14.02-64.97-14.82-18.13-1.03-35.76-1.95-53.82.74-11.7,1.74-20.74,10.36-24.54,21.09l-5.97,16.86c-1.32,2.01-4.72,3.11-6.87,4.28-2.91,1.58-6.32-.12-7.17-3.08-3.44-11.99-1.2-24.5-5.12-26.91-6.75-4.15-14.1-5.8-21.7-7.47-26.58-5.85-62.32-7.63-89.39-5.71-12.22.87-21.57,6.15-27.75,17.07-5.8,10.24-8.55,22.23-9.55,34.33-2.52,30.57.56,45.73,7.09,75.1,2.91,13.07,7.72,24.71,14.27,36.35l10.08,17.91c3.68,6.53,9.8,10,17.61,10.59l32.07,2.43c22.6,1.71,46.72-1.47,53.05-26.71,5.47-21.79,26.41-22.12,44.21-23.38l5.21,11.28,14.32,25.31c3.82,6.76,9.97,10.49,17.89,11.09l30.22,2.31c23.07,1.76,48.58-.62,55.03-27.58,1.73-7.22,6.92-13.79,13.46-16.99,15.02-7.35,31.88-1.9,44.23-11.05,17.18-12.73,12.13-49.24,8.9-67.59ZM317.5,250.75c-8.44,2.18-9.25-11.7-9.93-20.84-.68-9.13,4.76-27.74,4.76-27.74l14.97-3.17c6.26.51,5.44,25.35,6.26,36.23.82,10.89-7.62,13.34-16.06,15.51ZM498.25,234.6c-1.74,10.11-13.76,15.11-18.46,13.53-13.83-4.65-3.99-30.5-3.27-41.04,4.83-2.6,10.2-4.84,15.88-3.89,7.79,1.31,6.84,25.67,5.85,31.4Z"/>
    <path class="cls-6" d="M508.59,186.08c-4.39-6.66-11.91-9.53-18.88-5.73l-9.48,5.18c-2.28,1.25-5.01,1.95-7.35.53-6.55-3.95-1.87-16.3-6.71-28.62-1.23-3.15-3.15-5.7-6.8-6.01-9.88-.85-19.51-1.87-29.17-3.99-5.95-1.31-11.61-.64-17.64-.3-21.69,1.21-50.25-6.82-69.81,1.91-8.35,3.73-11.6,13.1-12.81,21.54,29.05-2.37,32.34,69.11,26.72,86.17-.9,5.03-.58,10.14.95,15.33,1.77,8.11.22,7.05-4.64-3.17l-2.33-.08c-1.66,2.23-4.89,3.45-7.51,5.27,2.01,8.03,6.1,15.01,9.81,22.76,8.82,18.43,2.54,9.33,22.86,20.31,13.62,1.36,27.06.59,40.61.23,31.61-.84,32.71-31.56,49.79-50.84,13.05,4.31,27.48,4.72,39.45-1.62,3.09-1.64,4.86-6.33,6.22-9.42,8.05-18.32,7.55-53.04-3.28-69.45ZM498.25,234.6c-1.74,10.11-13.76,15.11-18.46,13.53-13.83-4.65-3.99-30.5-3.27-41.04,4.83-2.6,10.2-4.84,15.88-3.89,7.79,1.31,6.84,25.67,5.85,31.4Z"/>
    <path class="cls-6" d="M322.89,180.51c-5.78,3.02-13.56,9.3-17.7,4.58-5.92-6.74,1.12-32.83-13.53-33.86-9.49-.67-18.75-1.77-28.02-3.82-6.04-1.34-11.74-.51-17.85-.23-25.55,1.18-72.79-12.15-80.59,15.21-8.39,29.43-4.39,65.12,5.07,93.97,4.6,14.04,8.8,27.2,15.79,40.33,2.53,4.75,3.87,11.12,9.23,13.7,5.12,2.47,10.82,3.61,15.55,7.47l39.65-.43c11.11-.12,20.8-4.89,26.74-14.32,3.58-5.69,7.29-11.22,10.36-17.25,3.52-6.92,6.83-13.43,12.04-19.39,11.53,4.22,23.71,4.22,35.51.6,4.91-1.51,7.04-4.98,9.03-8.91,14.53-28.65,5.01-91.43-21.29-77.67ZM317.5,250.75c-8.44,2.18-9.25-11.7-9.93-20.84-.68-9.13,4.76-27.74,4.76-27.74l14.97-3.17c6.26.51,5.44,25.35,6.26,36.23.82,10.89-7.62,13.34-16.06,15.51Z"/>
    <path class="cls-5" d="M634.32,313.96c-51.12,24.11-112.82-1.86-103.59-30.79,1.44-4.52,6.25-6.58,10.12-6.66,11.35-.24,12.55,14.13,22.55,19.16,14.67,7.38,31.38,7.58,47.02,3.47,15.2-3.99,30.97-11.43,33.98-28.21,4.75-26.53-28.91-35.66-49.14-36.04-23.77-.45-54.09-11.61-49.93-39.86,2.12-14.4,11.1-24.52,22.33-32.88,21.52-16.02,44.01-20.78,70.41-13.88,7.23,1.89,14.66,3.47,20.13,8.87,2.89,2.85,1.94,6.78.71,9.93-6.65,17.02-45.22-16.61-79.56,13.08-6.02,5.2-10.02,13.57-7.63,21.74,3.34,11.46,34.6,12.16,44.66,13.03,22.04,1.89,42.38,13.24,50.07,34.75,4.69,13.13,2.66,29.09-4.52,40.71-6.73,10.9-16.08,18.16-27.61,23.6Z"/>
    <path class="cls-8" d="M209.46,129.07c-.37-2.75,1.65-3.97,3.57-4.75,5.92-2.4,11.53-4.65,17.16-7.68,3.45-1.86,4.77-5.14,3.07-9.06-4.24-9.79-10.39-18.28-17.17-26.68-12.05-14.93-23.63-29.51-34.63-45.17-2.25-3.21-3.99-6.62-4.74-10.39-3.89-19.6,52.37.34,60.33,2.51s15.62.14,20.67-6.79c3.86-5.3,5.59-11.5,6.69-18.11.09-.55.79-1.02.77-1.53-.02-.41,1.47-1.15,1.51.02.42,11.05-2.06,21.63-6.35,31.44-1.89,4.33-5.75,6.72-10.61,6.36-11.11-.83-21.51-3.58-32.12-6.72-6.31-1.87-19.47-6.69-23.81-4.83-3.86,1.65,5.09,10.27,6.86,11.83,13.87,12.24,27.99,23.56,41.14,36.58,6.47,6.4,11.83,13.32,17.68,20.23,3.16,3.73,10.25,17.15,5.92,24.41-7.97,13.35-41.59,10.68-55.96,8.32Z"/>
    <path class="cls-7" d="M431.99,120.66c-7.71,13.22-42.23,11.09-55.29,8.18-2.13-.47,1-3.95,2.25-4.37,6.48-2.17,12.17-4.75,18.1-7.94,3.39-1.82,4.57-5.16,2.91-8.92-3.02-6.86-6.82-13.39-11.57-19.44l-30.64-39.02c-5.13-6.53-17.38-21.35-13.77-28.68,2.73-5.53,20.71-3.13,26.62-1.89,11.12,2.34,21.65,5.94,32.4,9.17s19.76-1.36,23.8-11.48c2.07-5.2,2.82-10.8,6.19-16.25,1.23,11.41-1.79,22.28-5.94,32.57-1.95,4.85-6.23,7.17-11.51,6.67-10.73-1.01-20.81-3.54-31.05-6.65-5.22-1.58-21.68-7.29-24.64-4.58-2.29,2.08,6.07,10.27,8.1,12.05,13.05,11.41,26.08,22.06,38.6,34.21,7.21,6.99,13.22,14.64,19.66,22.36,3.07,3.68,10.04,16.79,5.81,24.04Z"/>
    <path class="cls-5" d="M21.87,428.89c-1.7,1.17-13.67,10.88-15.39,4.96-.36-1.24-.27-2.74.97-3.97l25.51-25.3c-2.54-4.98-2.38-10.3,2.6-12.63l17.06-7.99c2.39-1.12,18.82-17.96,18.2-20.71-1.19-5.21-55.05,15.57-60.46,17.87-2.91,1.24-10.31,3.43-10.36-1.89-.04-3.97,2.8-10.15,5.01-13.72,3.66-5.92,10.98-7.54,16.98-10.22-.41,3.21-3.49,3.01-5.02,5.33,19.87-3.49,34.4-9.86,54.98-11.65,4.07-.35,6.05,3.08,7.85,5.82,1.92,2.93,2.48,5.12.16,7.97-4.28,5.26-9.12,9.75-12.9,15.85l60-24.04c7.96-3.19-3.39,12.02-10.28,13.65-5.48,1.29-9.75,2.35-14.99,4.39l-44.67,17.34c-3.05,1.42-4.54,5.27-7.3,8.04l51.5,28.01c4.67,2.54,6.77,8.2,5.31,12.78-.75,2.34-2.83,2.96-4.84,1.92l-61.46-31.93c-4.51,4.82-9.32,8.73-13.17,13.77-1.69,2.22-2.46,4.43-5.29,6.38Z"/>
    <path class="cls-5" d="M323.94,370.94c2.04,2.85-2.93,10.56-8.18,11.51-2.42.44-7.77.22-8.15-3.34-.58-5.37,5.76-10.53,10.81-10.81,2.73-.15,4.4,1.05,5.53,2.64Z"/>
    <path class="cls-5" d="M129.05,202.67c-17.43-24.65-41.64-40.42-69.99-50.52-13.33-4.75-24.83-13.55-38.74-16.75-9.1-2.1-15.75,10.56-15.62,18.41l.71,43.28c.49,30.15-.01,59.55-1.22,89.63-.26,6.51-.84,12.61-.47,18.73.45,7.49,5.93,12.53,13.19,12.1,20.78,14.51,62.45,13.22,84.14,2.53,18.44-9.09,30.48-25.22,37.36-43.75,9.32-25.1,6.21-51.66-9.34-73.65ZM97.66,294.81c-12.64,10.14-37.29,10.81-51.67,9.21-7.01-.78-12.96-3.99-18.19-8.02l1.64-60.05-.56-70.57c9.36,3.21,17.57,7.95,26.44,12.26,10.16,4.94,20.59,8.77,29.76,15.44,7.67,5.58,15.04,11.26,21.16,18.59,20.91,25.06,17.21,62.45-8.58,83.14Z"/>
    <path class="cls-4" d="M350.65,268.85c2.99-4.02,4.05-8.29,6.02-12.09.58,3.55,4.98,21.41,3.07,23.63-2.49,2.9-7.99-9.94-9.09-11.54Z"/>
    <path class="cls-5" d="M318.49,412.85c-5.98,4.9-23.99,15.21-28.55,5.39-3.77-8.13,14.23-11.5,20.25-25.23.53-1.21.56-2.6.12-3.7-.3-.76-1.77-1.4-2.9-1.47-8.38-.51-14.3,4.26-19.79,9.53-15.42,14.79-3.25,17.83-23.53,23.56l-12.54-10.23,29.42-39.64c6.12-8.24,6.59-18.79,1.17-18.98-1.36-.05-2.78.84-3.88,2.21-9.9,12.29-17.21,25.8-26.14,38.83-5.99,8.74-17.02,14.23-21.26,19.88-2.68,3.58-10.11,7.6-14.5,8.04l-12.51-10.28,30.29-40.67c4.88-6.56,5.71-17.29.96-17.97-1.27-.18-2.53.14-3.58,1.3-10.66,11.8-17.31,25.69-26.13,38.91-3.33,5-9.46,9.71-13.95,13.29-3.89,3.1-5.97,3.86-8.54,8.44-1.33,2.38-16.27,11.02-20.49,5.29-4.62-6.26,7.23-13.2,10.21-18.93,1.38-2.66-1.44-5.53-2.62-8.09l4.94-3.13c-.34-2.91-3.27-7.19-7.01-6.63-21.08,3.12-32.21,9.73-48.94,22.01-4.21,3.09-6.68,7.41-5.66,13.19.95,5.41,5.35,14.48,11.62,15.12,6.88.69,12.73-5.92,17.3-9.65l10.32-8.44-3.58,11.76c-1.17,3.84.52,8.69,5.18,8.79,6.33.14,11.64-3.42,16.57-6.87,4.79-3.34,9.44-5.99,13.41-10.46,8.68,5.43-2.18,11.33-5.92,28.08-1.65,7.38-.98,15.75,5.35,20.62,2.35,1.81,6.14.28,8.65-.91,10.08-4.79,17.69-13.02,23.09-22.68,2.72-4.86,1.57-11.25,3.42-15.99l13.57-9.22c1.33,1.69,3.27,3.64,3.06,5.34-5.85,12.39-15.8,28.41-6.67,41.16,6.22,8.69,20.24-4,25.23-9,7.76-7.77,12.31-17.29,11.73-28.58,4.6-1.96,7.78-5.18,12.25-6.36,1.28,5.43,3.14,9.56,6.74,11.8,10.44,6.5,25.53-5.9,33.19-13.62,1.6-1.61,2.09-3.98.63-5.83ZM125.16,421.9c-5.68-6.41,6.72-15.02,13.06-17.82,8.46-3.74,16.61-6.85,25.49-10.18-3.37,6.92-33.01,34.24-38.55,27.99ZM201.35,451.52c-1.97,2.73-6.17,6.71-9.19,4.92-8.35-4.95-1.79-23.13,2.74-29.23,4.4,1.24,8.12,2.1,12.8,2.57-.55,7.71-1.56,15.1-6.34,21.74ZM239.2,456.25c-7.52-5.45-1.14-21.84,2.79-28.89l12.78,2.43c2.68,9.99-8.42,31.63-15.58,26.45Z"/>
    <path class="cls-5" d="M670.36,413.45l-9.86,5.42c-5.69,3.13-11.89,5.86-18.78,4,5.38-3.89,10.57-5.91,14.75-9.96,6.31-6.13,8.89-14.41,4.67-22.41-1.54-2.93-1-6.61-2.25-9.68-.92-2.25-6.43-.96-8.7-.24-2.52.81-2.38,4.59-4.31,6.7-5.71,6.24-12.87,10.86-19.32,16.65-7.84,7.04-15.94,13.77-26.21,16.82-1.72.51-4.34.03-5.09-1.3-2.88-5.09,11.92-19.64,15.93-24.02,2.59-2.83,4.99-7.65,1.95-10.74-4.75-4.82-22.94,15.17-27.69,19.06-6.87,5.62-14.71,9.74-21.99,14.92-1.26.89-3.03.41-3.74-.08-2.08-1.44-1-7.32,1-8.48,5.54-3.23,20.68-13.85,23.2-20.79-4.67-1.75-10.95-3.04-15.06-.01-5.7,4.21-10.48,9.29-15.78,13.97-3.07,2.71-3.35,7.25-5.96,10-2.98,3.14-17.28,10.72-19.27,6.19-1.33-3.02.74-6.58,2.6-8.8l15.55-18.54c1.46-1.74,1.66-6.19-.33-7.48-3.01-1.95-6.87.25-9.19,2.33l-19.84,17.75c-1.28,1.15-21.65,16.17-24.67,13.84-1.79-1.38-2.31-6.1,3.91-10.38,7.57-5.21,15.58-10.03,20.49-18.62-12.52-6.7-21.02,4.21-30.35,13.45-6.73,6.66-8.05,16.85-2.4,24.25,3.2,4.19,8.13,5.62,12.68,2.94,2.47-1.45,5.25-2.59,7.33-4.59l15.67-15.15-6.36,13.69c-.95,2.05-1.11,5.02.26,7.05,6.87,10.21,27.4-9.41,34.04-12.53,1.94,6.73,6.44,15.49,14.8,12.4,9.93-3.67,15.53-13.91,23.48-18.52-1.69,6.81-8.64,13.3-4.44,18.94,3.85,5.16,12.76,1.23,17.9-2.24l16.6-11.2c1.18,11.96,16.83,17.34,25.73,15.31,10.37-2.36,19.31-8.49,27.69-14.8,1.13-.85,1.98-1.28,2.22-2.46.15-.76.07-2.5-.86-2.62ZM635.84,419.93c-3.81-2.37-5.99-7.17-11.88-7.67l21.74-17.09c1.78,4.72,2.72,9.95,1.29,15.86-1.03,4.27-7.44,8.82-11.15,8.89Z"/>
    <path class="cls-5" d="M462.9,353.35c-24.63-14.15-65.5-4.3-90.1,6.39-7.42,3.22-11.51,11.68-9.46,19.22,1.94,7.13,22.46-4,26.84-4.46-5.43-1.17-9.45,2.23-14.46.17,13.41-5.77,27.25-8.99,42.61-10.65-16.12,16.89-30.54,33.47-42.47,52.85-3.07,4.99-4.93,10.73-2.69,16.73,2.52,6.72,37.41-.75,44.36-2.82,5.33-1.59,10.12-2.76,15.15-5.08,17.43-8.03,37.18-20.19,43.27-39.28,4.2-13.18-1.58-26.49-13.05-33.08ZM463.05,395.09c-22.16,26.67-74.11,31.42-78.05,26.53-.61-.76-.91-2.42-.13-3.7,9.4-15.42,20.41-29.02,32.1-42.75,2.98-3.5,5.36-6.45,4.51-11.81,13.54.24,29.62-1.95,40.69,6.73,7.94,6.23,7,17.63.89,24.99Z"/>
    <path class="cls-2" d="M191.87,281.22c-16.69-20.14-3.66-19.19-10.26-39-5.49-16.47-15.92-49.65-1.72-63.86l-1.67,24.09c-.92,13.3,3.33,25.84,7.56,38.44-.04-.12,12.81,44.23,6.09,40.32Z"/>
    <path class="cls-3" d="M290.48,202.17c-.57-6.52-.97-12.5-4.35-18.63-6.23-11.29-22.18-12.6-29.95-19.16,14.22,1.18,26.9,5.55,38.76,12.25-1.47,8.83-1.57,16.64-4.46,25.54Z"/>
    <path class="cls-3" d="M274.69,291.56c-.93,4.8-5.41,6.71-9.98,5.31-1.01-.31-2.27,0-2.88-.73-2.28-2.75,12.27-9.64,10.42-22.64l12.41-6.71c-1.27,3.75-4.72,5.24-6.21,8.53-2.29,5.09-2.69,10.76-3.75,16.23Z"/>
    <path class="cls-3" d="M460.33,176.19c1.66,1.59-2.06,22.21-3.52,22.81-.16-10.58-5.49-20.74-14.95-25.31-6.71-3.24-13.41-5.3-19.31-9.31,13.34,1.48,26,5.27,37.78,11.81Z"/>
    <path class="cls-4" d="M439.49,294.44c-1.98,3.95-8.05,2.59-11.13,1.49,3.83-8.84,10.25-7.32,11.02-22.87,4.26-1.01,6.45-3.95,10.74-5.5-.81,3.3-4.04,4.37-5.37,7.4-2.68,6.1-2.08,13.15-5.26,19.48Z"/>
    <path class="cls-1" d="M339.19,224.96c-.26-9.52.13-18.68-2.95-27.53-2.36-6.79-8.4-9.06-15.08-6.9-5.32,1.71-11.09,2.68-15.29,6.62-1.35,19.67-8.47,29.06-4.6,48.95,1.62,8.34,7.66,13.56,17.02,11.55,4.95-1.06,10.13-4.12,13.46-7.58,6.64-6.89,7.69-15.99,7.44-25.11ZM317.5,250.75c-8.44,2.18-9.25-11.7-9.93-20.84-.68-9.13,4.76-27.74,4.76-27.74l14.97-3.17c6.26.51,5.44,25.35,6.26,36.23.82,10.89-7.62,13.34-16.06,15.51Z"/>
    <path class="cls-1" d="M505.74,224.98c-.27-8.8,1.14-36.55-13.33-35.07-7.17.73-14.18,3-20.1,6.96-1.14,18.53-8.37,29.69-4.62,48.78.84,4.29,2.91,8.49,5.71,10.21,7.88,4.85,17.81.69,24.07-5.06,7.27-6.68,8.54-16.45,8.26-25.82ZM498.25,234.6c-1.74,10.11-13.76,15.11-18.46,13.53-13.83-4.65-3.99-30.5-3.27-41.04,4.83-2.6,10.2-4.84,15.88-3.89,7.79,1.31,6.84,25.67,5.85,31.4Z"/>
  </g>
</svg>